Coordinates
version=1
nRows=19
nColumns=36
inDegrees=yes

Units are S.I. units (second, meters, Newtons, ...)
If the header above contains a line with 'inDegrees', this indicates whether rotational values are in degrees (yes) or radians (no).

endheader
time	pelvis_tilt	pelvis_list	pelvis_rotation	pelvis_tx	pelvis_ty	pelvis_tz	hip_flexion_r	hip_adduction_r	hip_rotation_r	knee_angle_r	knee_angle_r_beta	ankle_angle_r	subtalar_angle_r	mtp_angle_r	hip_flexion_l	hip_adduction_l	hip_rotation_l	knee_angle_l	knee_angle_l_beta	ankle_angle_l	subtalar_angle_l	mtp_angle_l	lumbar_extension	lumbar_bending	lumbar_rotation	arm_flex_r	arm_add_r	arm_rot_r	elbow_flex_r	pro_sup_r	arm_flex_l	arm_add_l	arm_rot_l	elbow_flex_l	pro_sup_l
      2.16666670	    -31.64370892	     -7.18291909	     12.63558991	      0.99239044	      0.48660098	      0.05686860	    110.29550703	    -17.26662986	      1.94326681	    115.56280855	      2.01695150	     45.68323083	      2.47185102	     -7.49999987	    110.64886504	    -27.09375842	      1.44098033	    112.27598184	      1.95958555	     35.24703707	      7.43120149	     -7.49999987	    -35.28251805	     -6.92422477	      0.66389356	    108.24174315	     17.56001932	     70.62396791	    110.26936773	     78.30175570	    101.42592686	      6.00488592	     77.68145579	    128.19655599	     82.30710045
      2.18333330	    -32.20968625	     -7.25159175	     12.10635098	      0.99081808	      0.47438549	      0.05868699	    112.68322462	    -17.03642502	      2.46069890	    117.88427522	      2.05746874	     46.11963464	      2.98404361	     -7.49999987	    112.97665476	    -28.12623042	      2.64329911	    114.42582449	      1.99710739	     36.07690048	      8.69986757	     -7.49999987	    -35.11696062	     -7.38733958	      0.23719679	    108.55879078	     18.08002244	     70.76307189	    110.55511613	     78.36714066	    101.54256821	      5.66438785	     77.50507271	    128.25550358	     82.34352726
      2.20000000	    -32.70803654	     -7.35684157	     11.35831056	      0.99110632	      0.45005957	      0.06457279	    115.51796539	    -16.71609397	      2.73431850	    120.87432282	      2.10965491	     46.78982959	      3.80808364	     -7.49999987	    116.29093266	    -29.16592528	      4.97543169	    117.23522665	      2.04614070	     36.65577822	      9.90601717	     -7.49999987	    -34.00403858	     -7.94182524	      0.46284908	    107.77731950	     18.40265407	     70.50595019	    110.92613390	     78.16812038	    100.80422134	      5.10696351	     77.43015245	    129.47162297	     82.11490018
      2.21666670	    -32.51088016	     -7.11132579	     10.81168995	      0.99992784	      0.43740678	      0.06467927	    117.33330810	    -16.30295251	      3.44709106	    123.78051035	      2.16037746	     47.49777275	      4.78644553	     -7.49999987	    118.67832029	    -30.44804727	      7.12349652	    120.04596894	      2.09519741	     36.86170072	     11.04997467	     -7.49999987	    -33.69255895	     -8.61849475	      1.31588260	    106.76551595	     18.23919278	     70.28207442	    111.25614092	     78.32256281	     99.07614217	      4.58804282	     76.69683440	    131.23651131	     82.29791835
      2.23333330	    -31.14508347	     -6.36811342	     11.09112889	      0.99817108	      0.42394975	      0.06594367	    118.42999468	    -16.30571291	      5.04092599	    126.69389770	      2.21122566	     47.97124766	      5.66526317	     -7.49999987	    119.38008663	    -31.39676047	      8.29453007	    122.45487112	      2.13724069	     37.20281447	     12.11267327	     -7.49999987	    -34.68926745	     -9.27556924	      1.60204728	    106.71464447	     17.64360698	     69.77312010	    110.31528229	     78.38597141	     99.04094073	      4.96843496	     76.42749311	    131.19255074	     82.43687351
      2.25000000	    -29.32624292	     -5.55031987	     11.60001053	      1.00130264	      0.41433864	      0.05671596	    118.91813027	    -16.94813512	      7.06273366	    129.28967494	      2.25653052	     48.36637713	      6.99445999	     -7.49999987	    119.65582541	    -31.62361646	      9.20536759	    125.17340934	      2.18468813	     37.55683037	     13.00195541	     -7.49999987	    -36.28880873	     -9.46201964	      1.27151901	    107.03113738	     17.06306604	     69.50431482	    110.27364147	     77.84166667	     99.26308931	      5.44898740	     76.32139542	    129.89357513	     81.74084358
      2.26666670	    -28.24345451	     -5.07170461	     11.85423353	      1.00849267	      0.41012897	      0.05888452	    119.26850035	    -17.19796804	      8.64140707	    131.28612382	      2.29137512	     48.59126130	      8.10659854	     -7.49999987	    119.73837709	    -32.43876334	      9.98751389	    126.72262336	      2.21172701	     37.99329857	     14.16275091	     -7.49999987	    -37.19563699	     -9.69210780	      1.53433335	    106.27613841	     16.76328217	     69.81895204	    110.10685497	     78.01631190	     98.63167853	      5.77881755	     76.11580687	    128.87445333	     81.88813781
      2.28333330	    -27.73266941	     -4.83528853	     11.95801407	      1.01673217	      0.41077440	      0.06493755	    119.45078189	    -16.97465838	      9.36739701	    132.72156469	      2.31642829	     48.65385804	      8.39530344	     -7.49999987	    119.75170245	    -33.53078827	     10.88783180	    127.61064917	      2.22722599	     38.26603431	     15.54353510	     -7.49999987	    -37.35332226	    -10.04748259	      2.65263209	    104.75255983	     15.95874831	     70.75249184	    110.07125139	     77.04849097	     97.02772141	      4.88478032	     76.96593534	    128.51652895	     80.59745971
      2.30000000	    -26.56394659	     -4.53328810	     11.98549198	      1.00044353	      0.39792846	      0.07046656	    119.60065508	    -16.80169768	      9.63163339	    133.74799355	      2.33434286	     48.55653693	      8.65030826	     -7.49999987	    119.75963588	    -33.76192609	     11.87128720	    128.45467675	      2.24195705	     38.72079856	     16.33534065	     -7.49999987	    -38.64030814	    -10.46554541	      3.10541989	    106.33721880	     15.28395228	     70.12231167	    109.61525318	     75.65982629	     99.02477016	      4.92975107	     75.47249600	    127.70586632	     78.83015506
      2.31666670	    -24.80383856	     -4.07676077	     11.90552260	      1.00108808	      0.38783408	      0.07019005	    119.68570312	    -16.43938367	     10.36234384	    135.48606080	      2.36467785	     48.64669238	      9.29476002	     -7.49999987	    119.77537820	    -34.07593382	     13.42386031	    129.68683024	      2.26346218	     38.77343927	     16.69854721	     -7.49999987	    -40.61956673	    -10.92593113	      2.54699359	    108.22961837	     15.07299733	     68.19171873	    108.92773822	     75.71063344	    102.59093887	      4.10163696	     70.44623890	    125.62640707	     78.65451953
      2.33333330	    -23.46806847	     -3.48756614	     11.82354851	      1.00181210	      0.38443075	      0.06494733	    119.72050565	    -16.41296328	     11.46908500	    136.66541924	      2.38526154	     48.68181502	     10.06796406	     -7.49999987	    119.79627878	    -34.09932356	     14.13290277	    131.10040735	      2.28813376	     38.81373481	     16.45054397	     -7.49999987	    -42.50752104	    -11.09956146	      1.34340186	    109.93024318	     15.27632567	     66.58684039	    108.23609918	     75.80724257	    105.68104106	      3.98483377	     61.82210274	    122.06832887	     77.99180508
      2.35000000	    -22.14951075	     -3.21158505	     11.80680894	      1.00166278	      0.38167845	      0.06474644	    119.74330312	    -16.58505523	     12.29662062	    137.59076217	      2.40141182	     48.55162941	     10.83580206	     -7.49999987	    119.79831554	    -33.96776092	     15.00434220	    132.16655409	      2.30674153	     38.44401930	     15.57344521	     -7.49999987	    -43.75884704	    -11.05196313	      0.75313457	    111.10080523	     15.37397969	     65.46151197	    107.71866199	     75.92055263	    107.07562872	      4.68245832	     55.55404744	    118.52402457	     77.26342961
      2.36666670	    -21.30773769	     -3.08691482	     11.54285329	      0.99292306	      0.38065272	      0.06015440	    119.73867317	    -16.88853288	     12.62158248	    137.52092075	      2.40019286	     48.10894263	     11.16006550	     -7.49999987	    119.79818404	    -33.46046403	     15.18073526	    132.92336164	      2.31995031	     38.21114535	     14.61151157	     -7.49999987	    -44.53624275	    -10.73877809	      0.25290184	    112.13474887	     15.49163560	     65.11421830	    107.82810198	     76.04253974	    107.74966270	      5.58518544	     52.84532830	    117.00034080	     76.92375714
      2.38333330	    -21.04987473	     -3.18395837	     11.30902909	      0.99264263	      0.38606428	      0.06106682	    119.72976078	    -17.06581082	     12.36440572	    136.96335208	      2.39046145	     47.58350819	     11.24351918	     -7.49999987	    119.78607667	    -32.92296624	     15.14735380	    132.87873778	      2.31917148	     37.05618008	     13.03993900	     -7.49999987	    -44.53323050	    -10.53187463	      1.00511751	    112.58221374	     14.81761272	     66.02628867	    108.97436571	     75.28382481	    106.11868962	      7.29040065	     55.11655375	    117.42750158	     75.33153469
      2.40000000	    -21.25769962	     -2.97975773	     10.93829607	      0.99846734	      0.38741221	      0.06350935	    119.72405752	    -16.79389416	     11.95117384	    136.51303896	      2.38260200	     47.22856066	     10.78870051	     -7.49999987	    119.77619481	    -32.77197965	     15.29808960	    132.80441932	      2.31787438	     36.03867356	     11.78200455	     -7.49999987	    -43.70797965	    -10.65852691	      2.00752174	    112.15766638	     14.87381979	     66.96170625	    109.73051599	     75.60014979	    104.09158087	      8.07208762	     59.94824447	    119.71084287	     75.73127678
      2.41666670	    -22.04682650	     -2.85740210	     10.49427393	      0.99718550	      0.39643838	      0.05833455	    119.68582261	    -16.47215246	     11.44008926	    135.21968094	      2.36002865	     46.56771146	     10.01298767	     -7.49999987	    119.74389557	    -32.86771870	     14.15979802	    132.26536692	      2.30846614	     34.94647116	     10.35594461	     -7.49999987	    -42.61292261	    -10.92805200	      2.19444883	    111.80919643	     15.12251209	     68.15503603	    110.15377938	     79.01575456	    102.85953987	      8.50013366	     65.61570954	    120.86420999	     79.13134815
      2.43333330	    -22.52322491	     -2.90617450	     10.23751311	      0.98332253	      0.39909301	      0.06225016	    119.61186547	    -16.28160450	     10.54138577	    133.70911920	      2.33366437	     45.78983777	      9.23785017	     -7.49999987	    119.72882976	    -32.22600336	     13.25067580	    131.22325022	      2.29027777	     33.96373257	      8.99213710	     -7.49999987	    -41.92649259	    -10.93455975	      2.29901595	    113.34064971	     14.78442637	     68.40879477	    109.96175375	     77.42361152	    104.21889465	      8.53942145	     68.98922669	    120.98572507	     77.85145712
      2.45000000	    -22.72727745	     -2.96250514	     10.26021050	      0.98468389	      0.40225792	      0.06063420	    119.48656074	    -16.11517673	     10.28053933	    132.75355108	      2.31698656	     45.17145358	      8.57844686	     -7.49999987	    119.67323830	    -32.05047637	     12.48077446	    130.52909586	      2.27816249	     32.86715437	      7.71921279	     -7.49999987	    -41.08168893	    -10.70613060	      2.71301719	    114.34774402	     14.55411238	     68.51992307	    109.57290744	     77.26255462	    105.51121701	      8.81448471	     72.30886636	    121.20591184	     78.15852353
      2.46666670	    -23.97907417	     -3.11880755	     10.21298068	      0.99442035	      0.41378137	      0.05351357	    119.22611195	    -16.25297765	     10.19099032	    131.41849410	      2.29368542	     44.88872655	      8.27324883	     -7.49999987	    119.55394186	    -32.00714229	     11.05466335	    129.52999303	      2.26072486	     32.12938709	      6.53467389	     -7.49999987	    -38.62190415	    -10.44743808	      3.49158380	    113.28548634	     14.25076903	     69.19416389	    110.11227463	     76.11831624	    104.64198661	      9.29992190	     75.30598577	    121.48555645	     77.67912212
